<svg height="1365.333" viewBox="0 0 1024 1024" width="1365.333" xmlns="http://www.w3.org/2000/svg"><path d="m0 512v512h1024v-1024h-1024zm563.5-382.5c-10.1 43.8-9.5 40.1-7 39.7 2.1-.4 58.1-15.2 66.8-17.7l4.8-1.4-3.3 4.7c-17.3 24.2-51 73.2-50.8 73.9.1.4.7.7 1.3.6 1.2-.3 98.7-35.1 104.1-37.2 1.6-.6 3.1-1 3.3-.7.2.2-11.5 17.4-26.1 38.3-14.5 20.8-26.4 38.2-26.3 38.8.1.5 1.1.9 2.2.7 6.4-.9 25.8-.4 31 .7 30.6 6.7 55.6 30.6 65.4 62.5 2.3 7.7 3.4 15.9 7.1 53.6 4.4 44.9 6.4 65.4 12.5 128 3 31.1 6.6 68.2 8 82.5s2.7 27.6 3 29.5l.4 3.5-49.8-.3c-39.3-.2-50 0-50.8 1-.5.7-7.4 17.4-15.3 37.1l-14.3 35.8-17.8-26.8c-9.8-14.7-18.4-26.9-19.1-27.1-.8-.1-7.8 16.2-19.4 45.2l-18.1 45.4-18-45.1c-10.2-25.5-18.6-45.2-19.3-45.2s-9.2 19.7-19.3 45.2l-18.1 45.3-18.2-45.6c-10-25-18.6-45.6-19-45.6-.5-.1-9.1 12.1-19.2 27.1-17.7 26.5-18.3 27.2-19.3 24.5-.5-1.6-7.2-18.2-14.7-36.9l-13.7-34-50.3-.3-50.4-.2.6-3.8c.3-2 1-8.7 1.6-14.7 1.3-13.5 9.4-97.4 11.5-118 2.5-24.8 9.4-95.9 11-113 2.9-30.2 4.5-40.6 7.6-49.9 5.3-15.9 13-27.8 25.3-39.3 18.5-17.3 45.7-25.5 69.4-20.7 2.2.4 3.2.3 3.2-.5 0-.7-12-18.4-26.6-39.3s-26.4-38.1-26.2-38.3 15.2 5 33.3 11.5c40.9 14.6 71.4 25.6 73.8 26.5 1.1.5 1.7.3 1.7-.6 0-.8-12.2-18.7-27-39.9-14.9-21.2-27-38.6-27-38.7s2.1.4 4.8 1.2c2.6.7 9.2 2.5 14.7 4 14.7 3.8 50.8 13.7 52.3 14.2.6.3 1.2-.2 1.2-1.2 0-1.4-6.5-30.2-14.4-63.5-1.4-5.7-2.4-10.6-2.2-10.7.2-.2 9 12.2 19.6 27.4 28.2 40.6 33.1 47.3 34 47.3.7 0 27.9-38.4 47.6-67.1 3.2-4.8 6-8.6 6.1-8.5s-3.6 16.4-8.2 36.1zm-376.2 643.3c1.3 1.5 1.7 4.7 1.9 17.2l.3 15.5 8.3.3 8.2.3v-15.9c0-14.2.2-16.1 1.8-17.6 1.7-1.5 5.3-1.6 35.8-1.4l33.9.3 7.8 11.5c4.3 6.3 8.4 12.4 9.1 13.5 1.2 1.8 1.9.9 9.6-10.5 4.5-6.9 8.9-13.1 9.8-13.8 1.2-.9 13.1-1.2 51.6-1.2 46.3 0 50.7.2 57.8 2 4.3 1 9.2 2.7 10.9 3.5 4.7 2.5 11.8 9.4 14.2 14l2.2 4 .3-10c.2-7.3.7-10.4 1.9-11.7 1.4-1.6 5.2-1.7 50.8-1.8 45.6 0 49.3.1 50.7 1.8.9.9 3.5 7.9 5.9 15.4 2.4 7.6 4.6 13.4 5 13 .6-.6 3.9-12.1 6.9-23.9.6-2.4 1.9-4.7 3-5.3 1-.5 8.7-1 17.3-1 13.4 0 15.6.2 16.9 1.7.9 1 3.4 7.4 5.6 14.3s4.4 12.5 4.8 12.5c.5 0 2-5.7 3.4-12.6 1.4-7 3.1-13.4 3.9-14.3 1.1-1.4 3.9-1.6 18.5-1.6 21.1 0 21.6.2 19.9 8.1-.6 3-1 5.5-.8 5.7s2.5-1.2 5.2-3.1c6-4.4 9.8-5.9 20.6-8.6 17.1-4.2 41.2-1.8 55 5.6 6.7 3.6 16.5 13.4 19.5 19.5 1.3 2.7 2.5 4.8 2.7 4.8s1.3-2.1 2.5-4.6c3.3-6.7 12-15.6 19-19.3 19.6-10.5 51.1-10.7 71.1-.5 6.7 3.3 15.3 11.5 19 17.9 1.6 2.7 2.9 4.5 3 4 0-.6 0-6.5-.1-13.2-.2-16.9-1-16.3 20.8-16.3 21.9 0 21.6-.2 21 12.6-.2 5.2-.1 9.4.2 9.4.4 0 3.5-4.1 7-9.2 9.7-13.9 7.3-12.8 27-12.8 15.7 0 17.2.2 19 2 1.1 1.1 2 2.4 2 2.9 0 .6-6.3 9.4-14 19.7-9.9 13.2-13.8 19.3-13.4 20.6.5 1.6-.4 2.3-2.8 1.9-.3 0-1.8 1.5-3.3 3.5l-2.7 3.5 3.8 4.7c2 2.6 5.1 6.2 6.8 7.9l3 3.3h14.2c11.6 0 14.5.3 15.8 1.6 2.2 2.1 2.4 33.5.2 35.3-.9.7-8.6 1.2-22.7 1.4l-21.5.2-8.8-10.3c-4.8-5.6-9.1-10.2-9.4-10.2-.4 0-.5 4-.4 8.8.3 6.9.1 9.1-1.1 10-1.1.9-6.7 1.3-19.8 1.3-16.5 0-18.5-.2-19.7-1.8-.9-1.3-1.3-5.1-1.2-12.8.1-6.1.1-11.4.1-11.9-.1-.5-1.8 1.7-3.9 5-6.9 10.6-14.9 16.3-29.2 21-7.7 2.4-10 2.7-23.5 2.8-14.2 0-15.5-.1-25-3.2-14.9-4.7-25.2-12.7-30.5-23.8-1.2-2.4-2.4-4.4-2.6-4.4s-1.5 2.3-3 5.2c-5.5 10.9-16.5 19-32.4 23.9-6.4 2-9.6 2.3-22 2.3-12.1 0-15.8-.4-22.5-2.3-16.6-4.8-26.8-12.6-32.9-25.4-1.9-3.9-3.7-8.1-4.1-9.2-.4-1.3-2.1 3.9-5.1 15.5-2.7 10.4-5.1 18-6.1 18.7-1.1.9-6.5 1.1-19.1.9-15.6-.3-17.7-.6-18.9-2.2-.7-1-1.3-2.4-1.3-3.2s-.9-3.3-1.9-5.6c-1.1-2.3-2.5-6.9-3.2-10.4-.7-3.7-1.6-6.1-2.3-5.9-1.7.5-3.3 9-1.8 9.5 1.9.6 1.4 2.9-.7 3.5-1.4.3-2.1 1.7-2.6 5.1-1.3 8.7-1.5 8.8-22 8.7-13.1 0-18.2-.4-19.1-1.3-1.1-1.2-7.4-20.7-12.7-39.6-1.1-3.9-2.4-7.2-2.9-7.2-.4 0-.8 10.3-.8 22.9 0 19.1-.2 23.1-1.5 24.1-1.2 1-14.2 1.2-57 1.2l-55.4-.1-12.5-12.8-12.5-12.8-.1 11.6c0 8.9-.3 11.9-1.5 12.9-1.9 1.6-40.3 1.6-41.9 0-.7-.7-1.3-14.3-1.6-40.6l-.5-39.5-8 11.6c-4.4 6.3-11 15.9-14.7 21.2l-6.8 9.7v18.7c0 12-.4 19-1 19.4-2 1.2-37.1.7-38.6-.6-1.1-.9-1.4-5-1.4-19.6v-18.4l-13.2-19.4c-7.3-10.7-13.6-19.4-14-19.4-.5-.1-.8 16.9-.8 37.8 0 33.5-.2 38-1.6 39.2-2.1 1.7-36 1.5-38.1-.2-1-.9-1.3-5-1.3-17.5v-16.4h-17v16.5c0 16-.1 16.5-2.2 17.9-1.8 1.1-6.2 1.4-18.8 1.4-19.5-.1-20-.3-20-8.5 0-2.9-.2-5.3-.4-5.3s-2.5 2.2-5.2 4.9c-8.1 8.1-8.4 8.1-61.3 8.1-32.6 0-45.7-.3-46.7-1.1-2.2-1.8-2-33.2.2-35.3 1.3-1.4 5.7-1.6 32.1-1.6h30.6l-7.4-7.8c-9.5-9.7-13.7-15.9-16.1-23.4-5.1-16.7 1.4-32.3 15.6-36.7 5.6-1.8 9.4-2 51.2-2 42.2-.1 45.2 0 46.7 1.7zm90.7 133.3c6.1 2.8 11.2 7.4 13.7 12.3 2.2 4.1 2.9 17.2 1.3 22.1-1.6 4.8-8.5 11.8-13.4 13.6-5.9 2.1-3.7 3.4 6.6 3.7l9.6.3 7.7-23.8c4.3-13.1 8.4-25.5 9.3-27.6l1.4-3.7h21.3c15.8 0 21.5.3 22.3 1.2.5.7 4.6 12.3 9.1 25.8s8.5 25.2 8.9 26 .9-10.7 1.2-25.5l.5-27 15.1-.3 15-.3 9 11.3 8.9 11.2.5-10.9.5-11h31l.3 3.7c.2 2.1.5 3.8.7 3.8.1 0 1.6-1.3 3.3-2.8 1.7-1.6 4.8-3.4 7-4 5.6-1.7 77.3-1.7 79 0 .9.9 1.2 8.4 1.2 27.5v26.3l19.8-.2 19.7-.3 9-27 9-27 21.4-.3c13.6-.1 21.8.1 22.6.8.7.6 2.3 4.6 3.5 9 1.3 4.4 2.6 8 2.9 8s.6-3.3.6-7.2c0-11.9-4.4-10.8 40.8-10.8 29.2 0 39.6.3 40.5 1.2.7.7 1.2 2.5 1.2 4s.2 2.8.5 2.8 2.7-1.1 5.4-2.4c7.7-3.9 15.9-5.6 27.6-5.6 20.5 0 35 6.4 42.3 18.9l2.7 4.6.3-10.4c.1-5.8.8-11.1 1.4-11.8 1.6-2 53.3-1.8 61.2.2 7.2 1.9 13.4 6.1 17.2 11.7 2.6 3.9 2.9 5.2 3.2 13.8.3 9.1.2 9.7-2.7 14.3-2.9 4.5-10.9 10.7-13.9 10.7-.7 0-1.2.6-1 1.3.3.8 4.2 1.4 12.9 1.7l12.4.5v29l-17.6.3-17.6.2-9.9-10-9.9-10.1-.5 9.8-.5 9.8h-34l-.5-10.4-.5-10.4-3.8 5.6c-4.5 6.4-11.7 11.7-20.2 14.8-5.1 1.9-8.2 2.2-20.5 2.2-12.2.1-15.5-.3-20.9-2.1-12.6-4.1-21-12.1-25.3-23.9-1.7-4.7-2.1-8.2-2.2-18.1v-12.3l-5.1.3-5 .3-.5 27-.5 27h-31l-.5-27-.5-27-10.7-.3c-6-.1-10.8 0-10.8.2 0 .3 3.8 12.1 8.5 26.2 6.6 19.8 8.3 26 7.4 27-.9 1.1-4.9 1.4-18 1.4h-16.8l-2.1-5.7c-1.1-3.2-2.3-6.4-2.5-7.1-.3-.9-2.8-1.2-9.6-1l-9.1.3-2.5 6.8-2.5 6.7h-47.6c-53.1 0-51.6.2-50.5-6.6.3-1.9.2-3.4-.2-3.4s-2.7 1.8-5 3.9c-2.4 2.2-6 4.4-8.1 5-2.5.7-17.3 1.1-39.6 1.1h-35.7l-8.8-11.2-8.8-11.3-.5 11-.5 11-28.9.3c-18.2.1-29.3-.1-30.1-.8-.6-.5-2-3.7-3-7l-1.8-6h-18.5l-2.3 6.7-2.4 6.8-27.8.3-27.9.2-9.6-10.1-9.7-10.2-.5 9.9-.5 9.9h-34l-.5-27-.5-27h-20l-.5 27-.5 27-15.2.3c-8.4.1-15.4.1-15.5 0-.1-.2-.5-12.5-.8-27.3l-.5-27-11.5-.3c-7.3-.3-11.8-.8-12.2-1.5-1.3-2.1-.9-26.2.4-27.5 1-1 16.5-1.2 69.8-1l68.5.3z"/><path d="m430.5 315.4c-17.4 7.4-36.3 26.8-53.3 54.8-4.2 6.8-9.2 16.3-9.2 17.3 0 .3 19.2.4 42.8.3l42.7-.3 5.7-2.7c7.9-3.7 14.2-9.8 18.1-17.7 3-6.1 3.2-7.3 3.2-16.6 0-9-.3-10.6-2.9-16-3.8-7.6-10.5-14.3-18-18-4.9-2.4-7.5-3-14.5-3.2-7.4-.3-9.4 0-14.6 2.1zm19.2 22.3c9.6 4.5 9.8 19.9.4 24.8-3.9 2-10.6 1.9-14.1-.2-3.6-2.1-7-8.1-7-12.4 0-6.9 7-13.9 13.8-13.9 1.9 0 5 .8 6.9 1.7zm130.8-22.9c-13.3 4.6-22.8 15.8-25.4 29.7-2.9 15.8 5.7 32.3 20.7 39.7l6.7 3.3 42.7.3c23.6.1 42.8-.1 42.8-.5 0-1.2-12.4-22.3-16.8-28.8-16.2-23.2-31.9-37.9-46.8-43.5-6.8-2.5-17-2.6-23.9-.2zm18.5 22.7c8.9 4.6 10.4 15.9 3 23-2.3 2.2-4.1 2.9-8.2 3.2-8.8.7-14.9-4.6-15-13.1-.2-10.7 10.8-17.9 20.2-13.1zm-99.2 65.5c-8.9 1.8-18.9 6.3-24.3 10.7-7.2 6-11.3 14.3-10.1 20.9l.7 3.2 7.2-.1c5.7-.1 8.3.3 12.2 2.2l5 2.4-3 .8c-1.6.4-7 1.7-12 2.9-15.6 3.6-32.5 13.1-45.7 25.7-8.3 7.8-22.8 24.8-22.8 26.7 0 .3 8.1.6 18 .6s18 .2 18 .5c0 1-18 36.5-18.5 36.5-.3 0-4.4-7.8-9.1-17.3-4.7-9.4-8.8-17.4-9-17.6-.8-.9-5.3 1.1-9.1 4-2.5 1.9-5.6 5.8-7.5 9.3-2.8 5.3-3.2 7-3.2 13.1.2 11.9 5.5 20.4 16 25.6 6.7 3.3 6.9 3.4 23.3 3.7l16.6.4 9.5-19.1c5.2-10.5 9.7-19.1 10-19.1s4.8 8.5 10 19l9.4 19h73.1l9.5-19c5.2-10.5 9.7-19 10-19s4.8 8.6 10 19.1l9.5 19.1 16.5-.4c15.1-.4 17-.6 22-3 14.7-6.7 21.3-23.2 15.1-37.5-2.4-5.4-8.6-11.9-14-14.7l-3.1-1.6-9 18c-5 9.9-9.4 18-9.8 18-.8 0-18.2-34.4-18.2-36 0-.6 6.9-1 18.5-1 10.2 0 18.5-.3 18.5-.6 0-1.8-10.5-15.1-18.4-23.2-17-17.4-34.3-26.8-56.5-30.7-4.7-.9-8.6-1.7-8.9-1.9-.2-.3 1.6-1.5 4-2.7 3.4-1.8 5.8-2.3 12.1-2.2 7.6.1 7.7 0 7.9-2.6.6-11.8-5.4-20.2-19.7-27.2-13.8-6.7-33.1-8.6-50.7-4.9zm28 77.7-.3 17.8-9.7.3-9.8.3v-36.1h20zm164.9 294.8c-25.7 4.9-40.7 23.3-40.7 50 0 25.6 14.4 43.9 38.5 49 9 1.9 28 1.9 37 0 20.6-4.4 34.5-18.5 37.9-38.6 1.2-7 2.6-8.3 2.6-2.5 0 1.7.6 5.3 1.4 8.1 6 22.6 25 34.5 54.8 34.5 29.7-.1 48-11.1 55-33.3 2.3-7.5 2.8-23.5.8-31.7-4.1-17.3-16.4-29.5-35-34.6-9-2.5-31.9-2.5-41-.1-19.8 5.3-32.5 18.5-35.2 36.7-1.6 9.9-1.9 10.1-3.4 1.8-1.8-10.4-5.3-17.8-11.5-24.3-10.1-10.7-22.3-15.4-41.4-16.1-8-.2-14.6.1-19.8 1.1zm25.4 27.6c7.7 2.5 12.5 11.7 12.3 24-.2 8.4-1.6 12.8-5.7 16.6-4 3.8-8.4 5.3-15.7 5.3-14.1 0-19.9-6.1-20.8-21.6-.7-12.6 2.6-20 10.2-23.5 4.7-2.1 14.4-2.5 19.7-.8zm118.7 1.5c2.1 1.2 4.3 3.9 6 7.4 2.3 4.8 2.7 6.7 2.6 14.5 0 10.9-1.9 15.5-7.7 19.3-3.6 2.4-5 2.7-13.1 2.7-7.3 0-9.8-.4-12.6-2-4.7-2.8-7.9-9.4-8.7-18.2-1-12.5 3.6-22.3 11.9-25.1 5.1-1.7 17.8-.9 21.6 1.4z"/><path d="m702.6 808c-6.8 2.2-9.6 7.6-9.6 18.5 0 8.4 1.4 12.8 5.5 16.5 2.4 2.3 3.5 2.5 11 2.5 6.9 0 8.9-.4 11.2-2.1 4.4-3.2 6.3-7.9 6.3-15.9 0-7.9-3.2-16.5-6.9-18.5-2.9-1.5-13.9-2.2-17.5-1zm116.3-.1c-7.9 2.6-10.9 7.6-10.9 18.6 0 8 2.4 14.4 6.3 17 3.3 2.2 12.2 3 17.2 1.6 6.2-1.6 9.4-5.7 10.5-12.8 1.3-9.7-1.4-19.5-6.3-22.8-2.8-1.8-13.2-2.8-16.8-1.6zm137.1-32.9-15.4.5-10.6 15-10.5 14.9-.3-15.2-.3-15.2h-32.9v99h32.9l.3-14.3.3-14.2 11.9 14.2 11.9 14.3h39.7v-30h-29.8l-6.8-8.3c-3.8-4.5-7.5-9-8.2-9.9-1.2-1.5.9-4.7 16.7-25.9 10-13.4 17.8-24.5 17.4-24.8-.5-.3-7.8-.4-16.3-.1zm-868.5 1.9c-2.3 1-5.3 3.3-6.8 5-3.6 4.3-6.1 13.2-5.3 18.9 1.3 9.7 9.6 22.8 20.1 31.9 5.9 5.1 7.3 7.6 5.5 9.8-1 1.2-6.8 1.5-32.9 1.7l-31.6.3v29h92l5.4-3c3.2-1.8 6.4-4.6 8-6.9 2.3-3.4 2.6-5 2.6-12.1 0-7.4-.3-8.8-3.9-15.9-3-6.2-5.8-9.9-13.2-17.2-5.2-5.2-9.4-9.8-9.4-10.3 0-1.9 3.2-3.3 7.7-3.4 2.7-.1 9.4-.1 15 .1l10.3.2.2 34.2.3 34.3 16.3.3 16.2.2v-36.1l12.8.3 12.7.3.3 17.7.2 17.8h32v-44c0-24.2.3-44 .8-43.9.4 0 8.7 11.7 18.5 26l17.7 25.9v36l16.1-.2 16.1-.3-.1-17.6-.2-17.5 18.2-26.5c9.9-14.5 18.7-27.1 19.5-27.9 1.2-1.2 1.4 5.1 1.4 44.3v45.7h36v-16.3l.1-16.2 15.7 16.3 15.7 16.3 34.8-.1h34.7v-99h-32l-.2 34.2-.3 34.3-13.5.3-13.5.3-3.7-4.2c-3.8-4.4-4-5.9-1-5.9 3.8 0 13.9-5.9 17.9-10.4 5.5-6.3 6.7-10.1 6-19.7-.8-12.7-6.4-20.7-18.4-26.2-4.8-2.2-5.3-2.2-59-2.5l-54.2-.3-9.7 14.6c-5.4 8-10 14.5-10.4 14.5s-5-6.5-10.3-14.5l-9.7-14.5h-65l-.2 16.7-.3 16.8h-25l-.3-16.8-.2-16.7h-46.3c-42.7 0-46.5.2-50.2 1.9zm327.5 25.1c2.4 2.4 2.8 10.6.6 13.6-1.3 1.7-2.7 1.9-15.3 1.9h-13.8l-.3-8.8-.3-8.7h13.6c12.2 0 13.7.2 15.5 2z"/><path d="m391 809.5v4.6l11.3-.3 11.2-.3.3-2.8c.6-5-1-5.7-12.4-5.7h-10.4zm102 15v49.5h32l.2-37.3c.2-20.4.6-36.5 1-35.7s4.6 14.3 9.3 30c4.8 15.7 9.7 31.6 10.9 35.5l2.3 7h32.8l4.6-19.3c2.6-10.6 4.9-19.6 5.3-19.9.7-.7.3-1.9 6.9 20.7l5.5 18.5 16.3.3 16.4.2 11.9-47.7c6.6-26.3 12.2-48.6 12.4-49.6.4-1.6-.7-1.7-15.9-1.5l-16.3.3-4.1 19c-5.1 23.3-4.9 23-6.4 18-.6-2.2-3.5-11.4-6.4-20.5l-5.4-16.5-15-.3-15.1-.3-1 3.3c-.6 1.8-3.2 11.1-5.8 20.5-2.6 9.5-5 17.1-5.3 16.8-.2-.3-3.3-9.4-6.7-20.3l-6.2-19.7-29.1-.3-29.1-.2zm-359.9-5.8c4.6 4.8 9.5 10.9 10.9 13.5 1.4 2.7 2.8 4.8 3.3 4.8.4 0 .6-6 .5-13.3l-.3-13.2-11.4-.3-11.5-.3zm315.6 3.6c-1.9 4.4-10.7 12.2-16.3 14.3-7.1 2.7-5 3.9 7.4 4.2l11.2.3v-11.1c0-6-.2-11-.5-11s-1.1 1.5-1.8 3.3zm-312 83.4c-.4.3-.7 5.7-.7 12v11.3h25v55h26v-54.9l12.3-.3 12.2-.3v-23l-37.1-.3c-20.4-.1-37.3.1-37.7.5zm77.3 38.7v39.6h28v-12.5c0-6.9.2-12.5.3-12.5.2 0 6 5.6 12.8 12.5l12.3 12.5 25.6-.2 25.5-.3 2.4-6.8 2.4-6.8 11.6.3 11.6.3 2.4 6.7 2.3 6.8h53.8v-14c0-7.7.3-14 .8-14 .4.1 5.7 6.4 11.7 14l11 14h34c20.7 0 35.5-.4 37.8-1.1 5-1.3 10.3-6.1 11.8-10.6 1.7-5.2.5-13.4-2.8-19.5-1.5-2.9-6.1-8.6-10-12.6-10.6-10.7-10.3-11.2 7.8-11.2h11.9v55l46.2-.2 46.1-.3 2.2-6.5 2.2-6.5h23.6l2.2 6.5 2.2 6.5 15.1.3c8.4.1 15.2.1 15.1 0 0-.2-6-17.9-13.2-39.3l-13.2-39h-39l-10.5 31.5c-9.1 27.4-10.5 30.9-10.8 27.2l-.3-4.2h-41.9l-.2-27.3-.3-27.2-34-.3c-22-.2-35.8.1-39.1.8-12.1 2.6-16.9 16.3-10.3 29.5 1.3 2.7 5.9 8.6 10.3 13.2 4.7 5 7.6 8.9 7.3 9.7-.7 1.7-10.4 2.9-18.7 2.4l-5.5-.3-.3-27.8-.2-27.8-12.8.3-12.7.3v13.8c0 7.5-.3 13.7-.6 13.7s-5.6-6.3-11.7-14l-11.2-14h-25v36.2c0 20.7-.4 35.8-.9 35.3-.5-.6-6.1-16.9-12.6-36.3l-11.7-35.2-19.6.2-19.6.3-8.8 27.2-8.9 27.3h-23.7l-2.5-3.4-2.6-3.4 5.7-2.1c10.6-3.8 15.6-10.7 15.5-21.2-.2-10.6-4.8-17.5-14.8-22.1-4.8-2.2-6.3-2.3-33.2-2.6l-28.3-.4zm126.5-6.3c2.5 7.3 4.5 13.9 4.5 14.6 0 1-2.5 1.3-10 1.3-5.5 0-10-.4-10-.9 0-.8 7.5-22.2 9.5-27.4.4-1 .9-1.6 1.1-1.4.3.2 2.5 6.4 4.9 13.8zm292.8.2c2.6 7.8 4.7 14.6 4.7 15s-4.8.7-10.6.7-10.4-.3-10.2-.8c.2-.4 2.6-7.1 5.3-15 2.8-7.8 5.2-14.2 5.5-14.2s2.7 6.4 5.3 14.3zm-368.3-11.3c2.2 2.2 2.6 7 1 10.1-1 1.7-2.2 1.9-12.5 1.9h-11.5v-6.3c0-3.5.3-6.7.7-7 .3-.4 5.1-.7 10.5-.7 8.5 0 10.1.3 11.8 2z"/><path d="m333.1 941.8c-1.2 3.7-2.5 7.3-2.8 7.9-.3 1 1 1.3 5.1 1.3 3.1 0 5.6-.4 5.6-.8 0-1.1-4.5-14.1-5.1-14.7-.3-.2-1.5 2.6-2.8 6.3zm292.5.3c-1.4 3.8-2.6 7.4-2.6 8 0 .5 2.5.9 5.6.9 4.1 0 5.5-.3 5.2-1.3-.3-.6-1.5-4.2-2.7-8-1.3-3.7-2.4-6.7-2.6-6.7-.1 0-1.4 3.2-2.9 7.1zm-378.9-12.4c-.4.3-.7 2.2-.7 4v3.4l8.8-.3 8.7-.3.3-2.9c.2-1.6-.2-3.2-1-3.7-1.5-1-15.2-1.2-16.1-.2zm413.7-23.4c-.2.7-.3 6-.2 11.8l.3 10.4 12.3.3 12.2.3v54.9h26v-55h19.1l-.8 3.7c-.4 2.1-.8 8.5-.8 14.3.1 9.4.4 11.2 2.9 16.7 3.3 7.3 10.4 14.4 17.2 17.4 14.1 6.3 34.7 6.3 48.8 0 6.8-3 13.9-10.1 17.2-17.4 2.7-5.7 2.9-7.1 2.9-18.2s-.2-12.5-2.9-18.2c-6.7-14.6-21.1-22.3-41.6-22.3-14.4 0-27 4.2-33.5 11l-3 3.2-.5-6.9-.5-6.8-37.3-.3c-30.3-.2-37.3 0-37.8 1.1zm123.3 23.3c4.1 3 6.4 10.4 6 18.6-.7 11.3-5.5 15.8-16.8 15.8-5.2 0-7.3-.5-10-2.3-4.7-3.2-7.2-10.2-6.6-18.4.9-11.8 6.3-16.7 17.9-16.1 4.8.3 7.5.9 9.5 2.4z"/><path d="m768.4 931.7c-1.2.2-3.4 1.7-4.9 3.4-6 6.2-4 22.5 3.1 25.5s16.1.8 18.8-4.5c2.2-4.2 2-13.6-.3-18.8-1.6-3.4-2.7-4.4-5.8-5.2-3.8-1.1-6.9-1.2-10.9-.4zm53.6 12.7v39.7l14.1-.3 14.1-.3-.1-12.3c-.1-6.7.1-12.2.4-12.2.4 0 6.1 5.6 12.7 12.5l12 12.5h30.8v-24h-23.8l-2.6-3.4-2.6-3.4 3.8-1.2c14.2-4.5 19.9-14.5 16.9-29.1-1.1-5.1-7.6-12.1-13.9-15-5.1-2.3-6.3-2.4-33.5-2.7l-28.3-.4zm51-17.4c2.3 2.3 2.8 8.8.8 10.8-.8.8-5 1.2-12.5 1.2h-11.3v-6.3c0-3.5.3-6.7.7-7 .3-.4 5.1-.7 10.5-.7 8.5 0 10.1.3 11.8 2z"/><path d="m854.7 929.7c-.4.3-.7 2.1-.7 4v3.3h8.3c8.1 0 10.7-.9 10.7-3.6 0-3.1-3.1-4.4-10.4-4.4-4 0-7.6.3-7.9.7zm-356.7 3.9c0 .4 2.8 3.7 6.3 7.4s7.6 9.1 9.1 12.1l2.7 5.4-.3-12.5-.3-12.5-8.7-.3c-4.9-.1-8.8 0-8.8.4zm-40 14.9v9.5h17.2l-6.6-7.1c-3.7-3.9-7.2-8.1-7.8-9.5-2-4.4-2.8-2.5-2.8 7.1z"/></svg>